<svg xmlns="http://www.w3.org/2000/svg" width="296" height="688" class="svgbob"><style>.svgbob line, .svgbob path, .svgbob circle, .svgbob rect, .svgbob polygon {
    stroke: black;
    stroke-width: 2;
    stroke-opacity: 1;
    fill-opacity: 1;
    stroke-linecap: round;
    stroke-linejoin: miter;
}
.svgbob text {
    white-space: pre;
    fill: black;
    font-family: Iosevka Fixed, monospace;
    font-size: 14px;
}
.svgbob rect.backdrop {
    stroke: none;
    fill: white;
}
.svgbob .broken {
    stroke-dasharray: 8;
}
.svgbob .filled {
    fill: black;
}
.svgbob .bg_filled {
    fill: white;
    stroke-width: 1;
}
.svgbob .nofill {
    fill: white;
}
.svgbob .end_marked_arrow {
    marker-end: url(#arrow);
}
.svgbob .start_marked_arrow {
    marker-start: url(#arrow);
}
.svgbob .end_marked_diamond {
    marker-end: url(#diamond);
}
.svgbob .start_marked_diamond {
    marker-start: url(#diamond);
}
.svgbob .end_marked_circle {
    marker-end: url(#circle);
}
.svgbob .start_marked_circle {
    marker-start: url(#circle);
}
.svgbob .end_marked_open_circle {
    marker-end: url(#open_circle);
}
.svgbob .start_marked_open_circle {
    marker-start: url(#open_circle);
}
.svgbob .end_marked_big_open_circle {
    marker-end: url(#big_open_circle);
}
.svgbob .start_marked_big_open_circle {
    marker-start: url(#big_open_circle);
}<!--separator--></style><defs><marker id="arrow" viewBox="-2 -2 8 8" refX="4" refY="2" markerWidth="7" markerHeight="7" orient="auto-start-reverse"><polygon points="0,0 0,4 4,2 0,0"></polygon></marker><marker id="diamond" viewBox="-2 -2 8 8" refX="4" refY="2" markerWidth="7" markerHeight="7" orient="auto-start-reverse"><polygon points="0,2 2,0 4,2 2,4 0,2"></polygon></marker><marker id="circle" viewBox="0 0 8 8" refX="4" refY="4" markerWidth="7" markerHeight="7" orient="auto-start-reverse"><circle cx="4" cy="4" r="2" class="filled"></circle></marker><marker id="open_circle" viewBox="0 0 8 8" refX="4" refY="4" markerWidth="7" markerHeight="7" orient="auto-start-reverse"><circle cx="4" cy="4" r="2" class="bg_filled"></circle></marker><marker id="big_open_circle" viewBox="0 0 8 8" refX="4" refY="4" markerWidth="7" markerHeight="7" orient="auto-start-reverse"><circle cx="4" cy="4" r="3" class="bg_filled"></circle></marker></defs><rect class="backdrop" x="0" y="0" width="296" height="688"></rect><rect x="12" y="24" width="272" height="192" class="solid nofill" rx="0"></rect><circle cx="80" cy="128" r="52" class="nofill"></circle><text x="58" y="108" >a</text><line x1="72" y1="104" x2="112" y2="104" class="solid"></line><text x="74" y="124" >b</text><line x1="88" y1="120" x2="120" y2="120" class="solid"></line><circle cx="216" cy="128" r="52" class="nofill"></circle><line x1="184" y1="104" x2="200" y2="104" class="solid"></line><polygon points="200,100 208,104 200,108" class="filled"></polygon><text x="218" y="108" >e</text><line x1="176" y1="120" x2="192" y2="120" class="solid"></line><polygon points="192,116 200,120 192,124" class="filled"></polygon><text x="210" y="124" >f</text><text x="218" y="140" >g</text><line x1="144" y1="104" x2="152" y2="104" class="solid"></line><line x1="144" y1="120" x2="152" y2="120" class="solid"></line><text x="74" y="44" >Injective Mapping</text><text x="50" y="204" >Domain</text><text x="194" y="204" >Range</text><rect x="12" y="248" width="272" height="192" class="solid nofill" rx="0"></rect><circle cx="80" cy="352" r="52" class="nofill"></circle><text x="58" y="332" >a</text><line x1="72" y1="328" x2="112" y2="328" class="solid"></line><text x="74" y="348" >b</text><line x1="88" y1="344" x2="120" y2="344" class="solid"></line><text x="58" y="364" >c</text><circle cx="216" cy="352" r="52" class="nofill"></circle><line x1="184" y1="328" x2="200" y2="328" class="solid"></line><polygon points="200,324 208,328 200,332" class="filled"></polygon><text x="218" y="332" >e</text><line x1="176" y1="344" x2="192" y2="344" class="solid"></line><polygon points="192,340 200,344 192,348" class="filled"></polygon><text x="210" y="348" >f</text><line x1="144" y1="328" x2="152" y2="328" class="solid"></line><line x1="144" y1="344" x2="152" y2="344" class="solid"></line><text x="74" y="268" >Surjective Mapping</text><text x="58" y="428" >Domain</text><text x="194" y="428" >Range</text><rect x="12" y="472" width="272" height="192" class="solid nofill" rx="0"></rect><circle cx="80" cy="576" r="52" class="nofill"></circle><text x="58" y="556" >a</text><line x1="72" y1="552" x2="112" y2="552" class="solid"></line><text x="74" y="572" >b</text><line x1="88" y1="568" x2="120" y2="568" class="solid"></line><line x1="72" y1="584" x2="120" y2="584" class="solid"></line><text x="58" y="588" >c</text><circle cx="216" cy="576" r="52" class="nofill"></circle><line x1="184" y1="552" x2="200" y2="552" class="solid"></line><polygon points="200,548 208,552 200,556" class="filled"></polygon><text x="218" y="556" >e</text><line x1="176" y1="568" x2="192" y2="568" class="solid"></line><polygon points="192,564 200,568 192,572" class="filled"></polygon><text x="210" y="572" >f</text><line x1="176" y1="584" x2="200" y2="584" class="solid"></line><polygon points="200,580 208,584 200,588" class="filled"></polygon><text x="218" y="588" >g</text><line x1="144" y1="552" x2="152" y2="552" class="solid"></line><line x1="144" y1="568" x2="152" y2="568" class="solid"></line><line x1="144" y1="584" x2="152" y2="584" class="solid"></line><text x="82" y="492" >Bijective Mapping</text><text x="58" y="652" >Domain</text><text x="178" y="652" >Co-domain</text></svg>