<svg xmlns="http://www.w3.org/2000/svg" width="384" height="256" class="svgbob"><style>.svgbob line, .svgbob path, .svgbob circle, .svgbob rect, .svgbob polygon {
    stroke: black;
    stroke-width: 2;
    stroke-opacity: 1;
    fill-opacity: 1;
    stroke-linecap: round;
    stroke-linejoin: miter;
}
.svgbob text {
    white-space: pre;
    fill: black;
    font-family: Iosevka Fixed, monospace;
    font-size: 14px;
}
.svgbob rect.backdrop {
    stroke: none;
    fill: white;
}
.svgbob .broken {
    stroke-dasharray: 8;
}
.svgbob .filled {
    fill: black;
}
.svgbob .bg_filled {
    fill: white;
    stroke-width: 1;
}
.svgbob .nofill {
    fill: white;
}
.svgbob .end_marked_arrow {
    marker-end: url(#arrow);
}
.svgbob .start_marked_arrow {
    marker-start: url(#arrow);
}
.svgbob .end_marked_diamond {
    marker-end: url(#diamond);
}
.svgbob .start_marked_diamond {
    marker-start: url(#diamond);
}
.svgbob .end_marked_circle {
    marker-end: url(#circle);
}
.svgbob .start_marked_circle {
    marker-start: url(#circle);
}
.svgbob .end_marked_open_circle {
    marker-end: url(#open_circle);
}
.svgbob .start_marked_open_circle {
    marker-start: url(#open_circle);
}
.svgbob .end_marked_big_open_circle {
    marker-end: url(#big_open_circle);
}
.svgbob .start_marked_big_open_circle {
    marker-start: url(#big_open_circle);
}<!--separator-->.svgbob .note{ 
  fill: silver;
  stroke: silver;
 }</style><defs><marker id="arrow" viewBox="-2 -2 8 8" refX="4" refY="2" markerWidth="7" markerHeight="7" orient="auto-start-reverse"><polygon points="0,0 0,4 4,2 0,0"></polygon></marker><marker id="diamond" viewBox="-2 -2 8 8" refX="4" refY="2" markerWidth="7" markerHeight="7" orient="auto-start-reverse"><polygon points="0,2 2,0 4,2 2,4 0,2"></polygon></marker><marker id="circle" viewBox="0 0 8 8" refX="4" refY="4" markerWidth="7" markerHeight="7" orient="auto-start-reverse"><circle cx="4" cy="4" r="2" class="filled"></circle></marker><marker id="open_circle" viewBox="0 0 8 8" refX="4" refY="4" markerWidth="7" markerHeight="7" orient="auto-start-reverse"><circle cx="4" cy="4" r="2" class="bg_filled"></circle></marker><marker id="big_open_circle" viewBox="0 0 8 8" refX="4" refY="4" markerWidth="7" markerHeight="7" orient="auto-start-reverse"><circle cx="4" cy="4" r="3" class="bg_filled"></circle></marker></defs><rect class="backdrop" x="0" y="0" width="384" height="256"></rect><rect x="172" y="104" width="200" height="112" class="solid nofill note" rx="0"></rect><text x="186" y="124" >Parallel</text><text x="258" y="124" >Postulate:</text><text x="234" y="156" >AC</text><text x="258" y="156" >and</text><text x="290" y="156" >BD</text><text x="314" y="156" >always</text><text x="186" y="172" >intersect</text><text x="266" y="172" >when</text><text x="306" y="172" >angles</text><text x="186" y="188" >a</text><text x="202" y="188" >and</text><text x="234" y="188" >b</text><text x="250" y="188" >are</text><text x="282" y="188" >both</text><text x="322" y="188" >less</text><text x="186" y="204" >than</text><text x="226" y="204" >90°</text><text x="10" y="28" >A</text><line x1="30" y1="28" x2="28" y2="24" class="solid end_marked_circle"></line><line x1="194" y1="28" x2="196" y2="24" class="solid end_marked_circle"></line><line x1="32" y1="32" x2="96" y2="160" class="solid"></line><text x="74" y="92" >a</text><polygon points="80,100 72,104 80,108" class="filled"></polygon><line x1="192" y1="32" x2="128" y2="160" class="solid"></line><text x="146" y="92" >b</text><polygon points="144,100 152,104 144,108" class="filled"></polygon><text x="186" y="156" >Lines</text><line x1="8" y1="72" x2="192" y2="72" class="solid"></line><line x1="96" y1="160" x2="132" y2="232" class="solid end_marked_circle"></line><line x1="128" y1="160" x2="92" y2="232" class="solid end_marked_circle"></line><text x="210" y="28" >B</text><text x="74" y="236" >D</text><text x="146" y="236" >C</text><g><path d="M 88,80 A 16,16 0,0,1 88,96" class="nofill"></path><line x1="88" y1="96" x2="86" y2="100" class="solid"></line><path d="M 86,100 A 8,8 0,0,1 80,104" class="nofill"></path></g><g><path d="M 136,80 A 16,16 0,0,0 136,96" class="nofill"></path><line x1="136" y1="96" x2="138" y2="100" class="solid"></line><path d="M 138,100 A 8,8 0,0,0 144,104" class="nofill"></path></g></svg>